<svg width="24" height="13" viewBox="0 0 24 13" fill="none" xmlns="http://www.w3.org/2000/svg">
<path fill-rule="evenodd" clip-rule="evenodd" d="M0 1.5C0 0.671573 0.671573 0 1.5 0H22.5C23.3284 0 24 0.671573 24 1.5C24 2.32843 23.3284 3 22.5 3H1.5C0.671573 3 0 2.32843 0 1.5ZM0 6.5C0 5.67157 0.671573 5 1.5 5H16.5C17.3284 5 18 5.67157 18 6.5C18 7.32843 17.3284 8 16.5 8H1.5C0.671573 8 0 7.32843 0 6.5ZM1.5 10C0.671573 10 0 10.6716 0 11.5C0 12.3284 0.671573 13 1.5 13H10.5C11.3284 13 12 12.3284 12 11.5C12 10.6716 11.3284 10 10.5 10H1.5Z" fill="#78909C"/>
</svg>
